HIERARCHY
ROOT Hips
{
    OFFSET   0.000000   0.000000   0.000000
    CHANNELS 6 Xposition Yposition Zposition Zrotation Xrotation Yrotation
    JOINT Chest
    {
        OFFSET   0.000000   8.007230   0.000000
        CHANNELS 3 Zrotation Xrotation Yrotation
        JOINT Chest2
        {
            OFFSET   0.000000  22.077100   0.000000
            CHANNELS 3 Zrotation Xrotation Yrotation
            JOINT Neck
            {
                OFFSET   0.000000  23.254700   0.000000
                CHANNELS 3 Zrotation Xrotation Yrotation
                JOINT Head
                {
                    OFFSET   0.000010  14.370000   1.956610
                    CHANNELS 3 Zrotation Xrotation Yrotation
                    End Site
                    {
                        OFFSET   0.000000  19.566000   0.000000
                    }
                }
            }
            JOINT LeftCollar
            {
                OFFSET   3.911900  19.017000  -0.467063
                CHANNELS 3 Zrotation Xrotation Yrotation
                JOINT LeftShoulder
                {
                    OFFSET  10.383700   0.000000   0.000000
                    CHANNELS 3 Zrotation Xrotation Yrotation
                    JOINT LeftElbow
                    {
                        OFFSET  26.662100   0.001671   0.000522
                        CHANNELS 3 Zrotation Xrotation Yrotation
                        JOINT LeftWrist
                        {
                            OFFSET  28.869000   0.000037  -0.000114
                            CHANNELS 3 Zrotation Xrotation Yrotation
                            JOINT LeftFinger0
                            {
                                OFFSET   2.044650  -2.323450   3.252850
                                CHANNELS 3 Zrotation Xrotation Yrotation
                                JOINT LeftFinger01
                                {
                                    OFFSET   3.088140   0.000000   0.000000
                                    CHANNELS 3 Zrotation Xrotation Yrotation
                                    JOINT LeftFinger02
                                    {
                                        OFFSET   2.639460   0.000000   0.000000
                                        CHANNELS 3 Zrotation Xrotation Yrotation
                                        End Site
                                        {
                                            OFFSET   2.582190   0.000000   0.000000
                                        }
                                    }
                                }
                            }
                            JOINT LeftFinger1
                            {
                                OFFSET   8.364480   0.000000   3.252850
                                CHANNELS 3 Zrotation Xrotation Yrotation
                                JOINT LeftFinger11
                                {
                                    OFFSET   4.646930   0.000000   0.000000
                                    CHANNELS 3 Zrotation Xrotation Yrotation
                                    JOINT LeftFinger12
                                    {
                                        OFFSET   2.323470   0.000000   0.000000
                                        CHANNELS 3 Zrotation Xrotation Yrotation
                                        End Site
                                        {
                                            OFFSET   2.273050   0.000000   0.000000
                                        }
                                    }
                                }
                            }
                            JOINT LeftFinger2
                            {
                                OFFSET   8.364490   0.000016   1.078090
                                CHANNELS 3 Zrotation Xrotation Yrotation
                                JOINT LeftFinger21
                                {
                                    OFFSET   5.111620   0.000000   0.000000
                                    CHANNELS 3 Zrotation Xrotation Yrotation
                                    JOINT LeftFinger22
                                    {
                                        OFFSET   2.788150   0.000013   0.000000
                                        CHANNELS 3 Zrotation Xrotation Yrotation
                                        End Site
                                        {
                                            OFFSET   2.727660   0.000000   0.000000
                                        }
                                    }
                                }
                            }
                            JOINT LeftFinger3
                            {
                                OFFSET   7.899780   0.000016  -1.078090
                                CHANNELS 3 Zrotation Xrotation Yrotation
                                JOINT LeftFinger31
                                {
                                    OFFSET   4.646930   0.000000   0.000000
                                    CHANNELS 3 Zrotation Xrotation Yrotation
                                    JOINT LeftFinger32
                                    {
                                        OFFSET   2.323470   0.000000   0.000000
                                        CHANNELS 3 Zrotation Xrotation Yrotation
                                        End Site
                                        {
                                            OFFSET   2.273050   0.000000   0.000000
                                        }
                                    }
                                }
                            }
                            JOINT LeftFinger4
                            {
                                OFFSET   7.435080   0.000000  -3.252850
                                CHANNELS 3 Zrotation Xrotation Yrotation
                                JOINT LeftFinger41
                                {
                                    OFFSET   3.717550   0.000000   0.000000
                                    CHANNELS 3 Zrotation Xrotation Yrotation
                                    JOINT LeftFinger42
                                    {
                                        OFFSET   1.858760   0.000000   0.000000
                                        CHANNELS 3 Zrotation Xrotation Yrotation
                                        End Site
                                        {
                                            OFFSET   1.818440   0.000000   0.000000
                                        }
                                    }
                                }
                            }
                        }
                    }
                }
            }
            JOINT RightCollar
            {
                OFFSET  -3.911900  19.017000  -0.467064
                CHANNELS 3 Zrotation Xrotation Yrotation
                JOINT RightShoulder
                {
                    OFFSET -10.383700   0.000000   0.000000
                    CHANNELS 3 Zrotation Xrotation Yrotation
                    JOINT RightElbow
                    {
                        OFFSET -26.662100   0.001633   0.000260
                        CHANNELS 3 Zrotation Xrotation Yrotation
                        JOINT RightWrist
                        {
                            OFFSET -28.869000  -0.000045  -0.000080
                            CHANNELS 3 Zrotation Xrotation Yrotation
                            JOINT RightFinger0
                            {
                                OFFSET  -2.044660  -2.323490   3.252850
                                CHANNELS 3 Zrotation Xrotation Yrotation
                                JOINT RightFinger01
                                {
                                    OFFSET  -3.088140   0.000000   0.000000
                                    CHANNELS 3 Zrotation Xrotation Yrotation
                                    JOINT RightFinger02
                                    {
                                        OFFSET  -2.639450   0.000000   0.000000
                                        CHANNELS 3 Zrotation Xrotation Yrotation
                                        End Site
                                        {
                                            OFFSET  -2.582190   0.000000   0.000000
                                        }
                                    }
                                }
                            }
                            JOINT RightFinger1
                            {
                                OFFSET  -8.364480   0.000000   3.252850
                                CHANNELS 3 Zrotation Xrotation Yrotation
                                JOINT RightFinger11
                                {
                                    OFFSET  -4.646920   0.000000   0.000000
                                    CHANNELS 3 Zrotation Xrotation Yrotation
                                    JOINT RightFinger12
                                    {
                                        OFFSET  -2.323470   0.000000   0.000000
                                        CHANNELS 3 Zrotation Xrotation Yrotation
                                        End Site
                                        {
                                            OFFSET  -2.273050   0.000000   0.000000
                                        }
                                    }
                                }
                            }
                            JOINT RightFinger2
                            {
                                OFFSET  -8.364480   0.000000   1.078090
                                CHANNELS 3 Zrotation Xrotation Yrotation
                                JOINT RightFinger21
                                {
                                    OFFSET  -5.111610   0.000000   0.000000
                                    CHANNELS 3 Zrotation Xrotation Yrotation
                                    JOINT RightFinger22
                                    {
                                        OFFSET  -2.788160   0.000000   0.000000
                                        CHANNELS 3 Zrotation Xrotation Yrotation
                                        End Site
                                        {
                                            OFFSET  -2.727660   0.000000   0.000000
                                        }
                                    }
                                }
                            }
                            JOINT RightFinger3
                            {
                                OFFSET  -7.899780   0.000000  -1.078090
                                CHANNELS 3 Zrotation Xrotation Yrotation
                                JOINT RightFinger31
                                {
                                    OFFSET  -4.646930   0.000000   0.000000
                                    CHANNELS 3 Zrotation Xrotation Yrotation
                                    JOINT RightFinger32
                                    {
                                        OFFSET  -2.323470   0.000000   0.000000
                                        CHANNELS 3 Zrotation Xrotation Yrotation
                                        End Site
                                        {
                                            OFFSET  -2.273050   0.000000   0.000000
                                        }
                                    }
                                }
                            }
                            JOINT RightFinger4
                            {
                                OFFSET  -7.435090   0.000000  -3.252850
                                CHANNELS 3 Zrotation Xrotation Yrotation
                                JOINT RightFinger41
                                {
                                    OFFSET  -3.717550   0.000000   0.000000
                                    CHANNELS 3 Zrotation Xrotation Yrotation
                                    JOINT RightFinger42
                                    {
                                        OFFSET  -1.858760   0.000000   0.000000
                                        CHANNELS 3 Zrotation Xrotation Yrotation
                                        End Site
                                        {
                                            OFFSET  -1.818440   0.000000   0.000000
                                        }
                                    }
                                }
                            }
                        }
                    }
                }
            }
        }
    }
    JOINT LeftHip
    {
        OFFSET   9.782990   0.000000   0.000000
        CHANNELS 3 Zrotation Xrotation Yrotation
        JOINT LeftKnee
        {
            OFFSET  -0.000063 -41.789100   0.001657
            CHANNELS 3 Zrotation Xrotation Yrotation
            JOINT LeftAnkle
            {
                OFFSET   0.000078 -41.133200  -0.000113
                CHANNELS 3 Zrotation Xrotation Yrotation
                JOINT LeftToe
                {
                    OFFSET   0.000000  -6.358970  14.674500
                    CHANNELS 3 Zrotation Xrotation Yrotation
                    End Site
                    {
                        OFFSET   0.000000   0.000000   3.913200
                    }
                }
            }
        }
    }
    JOINT RightHip
    {
        OFFSET  -9.782990   0.000000   0.000000
        CHANNELS 3 Zrotation Xrotation Yrotation
        JOINT RightKnee
        {
            OFFSET   0.000053 -41.789200   0.000277
            CHANNELS 3 Zrotation Xrotation Yrotation
            JOINT RightAnkle
            {
                OFFSET   0.000030 -41.133200  -0.000150
                CHANNELS 3 Zrotation Xrotation Yrotation
                JOINT RightToe
                {
                    OFFSET   0.000000  -6.358960  14.674500
                    CHANNELS 3 Zrotation Xrotation Yrotation
                    End Site
                    {
                        OFFSET   0.000000   0.000000   3.913200
                    }
                }
            }
        }
    }
}
MOTION
Frames: 4
Frame Time:   0.016667
 -0.037628  89.521500   0.123146  -3.741100  -9.409560  -4.342930   1.164980   5.593190  -1.180990   2.463860  11.159800  -2.494540   6.286060   2.973110  -0.327352  10.401100   5.811600  28.415400  -3.208770   0.478823   1.609610 -75.515500  19.133800  -3.363550  -2.608680  -9.117950 -13.705800  10.780400  -3.382890   1.118440  36.115900  25.530000 -54.601500 -31.973900   0.007151   0.004508 -10.986900   0.003405  -0.000862 -25.305100   5.130340 -10.712000 -21.097900   0.002590   0.000000 -14.768500   0.001610  -0.005686 -27.690500   0.592662  -1.129140 -30.209100   0.003731  -0.003192 -20.119200   0.003129   0.003745 -27.039300   0.579723  -1.135830 -27.168400   0.007657  -0.007855 -18.094200   0.005812   0.001815 -25.825700   0.144144  -0.297831 -38.739100   0.003057  -0.010529 -25.800300   0.001453   0.004282   5.441370   0.545059   8.086380  61.545800 -24.727700  17.231600 -25.449400 -49.472800  99.443300  40.614700   0.999913  18.142800 -21.098600  52.712300  55.895700  80.690900   0.006229  -0.038235  47.080200  -0.004046  -0.013341   3.638010   1.137600  17.257300   3.211880   0.040399   0.011132   2.248320   0.028460  -0.001889  89.000000   0.005998   0.002835  95.574500   0.003462   0.001873  71.680900   0.002193  -0.001990  88.996200  -5.000990  -0.088200  92.311100   0.007184   0.003790  69.233300   0.004582  -0.004014  88.983900  -9.999870  -0.176449 110.000000  -0.004437  -0.000871  80.000000  -0.000401   0.001836   2.297470  12.978700   4.030740   0.554717   0.120840   4.238000  -0.447477  -4.270800   2.991430  -0.000000   0.000000   0.000000   3.673230  11.537400  -1.607060  -0.346037   1.964370  -2.466540  -0.994039  -4.401940   0.089731   0.000000   0.000000  -0.000000
 -0.056121  89.517000   0.133412  -3.744560  -9.408900  -4.359890   1.154370   5.588480  -1.188100   2.443070  11.150400  -2.507680   6.217470   2.916930  -0.317646  10.284900   5.706630  27.976900  -3.206560   0.495552   1.632350 -75.507600  19.143900  -3.363890  -2.591660  -9.123860 -13.717400  10.791300  -3.400490   1.121930  36.088700  25.530200 -54.642000 -32.001500   0.007233   0.004560 -11.000700   0.003494  -0.000875 -25.316200   5.131150 -10.699800 -21.106900   0.002614  -0.000445 -14.774800   0.001702  -0.005710 -27.700400   0.588159  -1.120180 -30.255600   0.003808  -0.003253 -20.150200   0.003188   0.003747 -27.039000   0.575189  -1.126890 -27.171900   0.007603  -0.007989 -18.096500   0.005820   0.001821 -25.829100   0.137126  -0.283168 -38.744100   0.003016  -0.010675 -25.803600   0.001477   0.004208   5.433440   0.588244   8.102440  61.545400 -24.782000  17.281900 -25.424000 -49.791500  99.459000  43.374900  -0.104457  21.631700 -21.187500  52.099600  56.466700  80.190900   0.005292  -0.033975  46.747200  -0.009742  -0.015136   3.340160   1.438040  21.120700   2.301380   0.032957   0.011570   1.610970   0.023194  -0.002104  89.000000   0.007066   0.002909  95.674900  -0.011212  -0.006069  71.756200  -0.006953   0.006365  88.996200  -5.000470  -0.088381  92.586100  -0.006635  -0.003736  69.439600  -0.004520   0.003284  88.983900  -9.999880  -0.176455 110.000000  -0.004407  -0.000857  80.000000  -0.000386   0.001796   2.299670  12.979400   4.023000   0.554529   0.119971   4.252000  -0.447930  -4.270450   2.999460   0.000000   0.000000   0.000000   3.677160  11.536700  -1.604970  -0.346049   1.963680  -2.466970  -0.996268  -4.400210   0.103889  -0.000000   0.000000   0.000000
 -0.071830  89.511400   0.140711  -3.747550  -9.408100  -4.376860   1.141660   5.583430  -1.196240   2.418130  11.140400  -2.522680   6.152910   2.861200  -0.308329  10.175400   5.602190  27.496600  -3.203170   0.515112   1.654320 -75.498000  19.159000  -3.364320  -2.574960  -9.135670 -13.724300  10.795600  -3.414830   1.127710  36.077900  25.528100 -54.686700 -32.021300   0.007315   0.004612 -11.010700   0.003584  -0.000887 -25.329700   5.131910 -10.687400 -21.117800   0.002639  -0.001187 -14.782500   0.001794  -0.005732 -27.707400   0.584221  -1.112270 -30.299500   0.003886  -0.003315 -20.179400   0.003248   0.003748 -27.038600   0.571197  -1.119010 -27.177900   0.007551  -0.008123 -18.100500   0.005828   0.001825 -25.834800   0.129817  -0.268123 -38.752700   0.002976  -0.010820 -25.809300   0.001504   0.004134   5.421660   0.632562   8.115440  61.509000 -24.777800  17.389400 -25.431600 -50.164400  99.369700  46.124900  -1.496620  25.647000 -21.274700  51.470000  57.234000  79.586800   0.002211  -0.028628  46.344800  -0.016219  -0.016050   3.049250   1.633260  24.684100   1.330760   0.022107   0.011632   0.931531   0.015517  -0.002319  89.000000   0.008101   0.002957  95.736200  -0.031727  -0.017568  71.802100  -0.020172   0.018233  88.996200  -4.999900  -0.088528  92.738100  -0.025136  -0.015273  69.553600  -0.017460   0.013465  88.983900  -9.999900  -0.176458 110.000000  -0.004378  -0.000842  80.000000  -0.000367   0.001756   2.300600  12.983900   4.017820   0.553387   0.113901   4.265540  -0.447556  -4.268170   3.008040   0.000000   0.000000   0.000000   3.678340  11.536000  -1.603790  -0.346098   1.961770  -2.467400  -0.998137  -4.396920   0.117191   0.000000   0.000000   0.000000
 -0.082827  89.506800   0.145358  -3.750250  -9.407540  -4.391390   1.128070   5.578970  -1.207140   2.391690  11.131600  -2.543160   6.089730   2.807980  -0.299481  10.068400   5.502140  26.958400  -3.201770   0.535289   1.676460 -75.486700  19.183700  -3.362180  -2.563450  -9.156860 -13.724600  10.795700  -3.426730   1.133400  36.071200  25.510000 -54.691100 -32.022900   0.007400   0.004662 -11.011500   0.003673  -0.000895 -25.344600   5.132540 -10.682300 -21.129800   0.002655  -0.001786 -14.790900   0.001889  -0.005740 -27.706700   0.580418  -1.104640 -30.316200   0.003969  -0.003378 -20.190500   0.003307   0.003748 -27.043900   0.567322  -1.111330 -27.193600   0.007498  -0.008255 -18.111000   0.005834   0.001825 -25.845700   0.125749  -0.258237 -38.769100   0.002934  -0.010963 -25.820200   0.001536   0.004061   5.405280   0.669840   8.126570  61.455800 -24.722000  17.549700 -25.450000 -50.600700  99.166700  49.276300  -2.986670  30.173600 -21.500600  51.295000  57.882300  78.902200  -0.005433  -0.027904  45.888800  -0.017130  -0.012858   2.038660   1.225630  27.329600   0.585350   0.017397   0.009527   0.417707   0.012186  -0.002526  89.000000   0.009084   0.002992  95.318500  -0.042159  -0.023849  71.488800  -0.027321   0.023934  88.986000  -4.999290  -0.088617  92.388500  -0.033492  -0.023795  69.291400  -0.023709   0.017697  88.983900  -9.999920  -0.176451 110.000000  -0.004354  -0.000845  80.000000  -0.000352   0.001724   2.298210  13.013200   4.018740   0.551963   0.055903   4.271880  -0.445274  -4.239200   3.017950   0.000000   0.000000   0.000000   3.677380  11.535100  -1.606150  -0.344445   1.958390  -2.462950  -1.000080  -4.392110   0.126307  -0.000000   0.000000  -0.000000
